<?xml version="1.0" standalone="no"?>
<!DOCTYPE svg PUBLIC "-//W3C//DTD SVG 20010904//EN"
 "http://www.w3.org/TR/2001/REC-SVG-20010904/DTD/svg10.dtd">
<svg version="1.0" xmlns="http://www.w3.org/2000/svg"
 width="954.000000pt" height="271.000000pt" viewBox="0 0 954.000000 271.000000"
 preserveAspectRatio="xMidYMid meet">

<g transform="translate(0.000000,271.000000) scale(0.100000,-0.100000)"
fill="#000000" stroke="none">
<path d="M913 2679 c-221 -28 -414 -122 -576 -278 -179 -172 -278 -375 -308
-627 -17 -140 -6 -860 14 -944 47 -197 132 -354 266 -493 169 -175 371 -276
615 -307 104 -13 758 -13 862 0 233 29 420 118 587 279 175 169 276 371 307
615 13 104 13 758 0 862 -31 244 -132 446 -307 615 -167 161 -354 250 -587
279 -94 12 -782 11 -873 -1z m651 -533 c26 -29 34 -33 50 -24 13 7 30 7 60 -2
70 -21 100 -52 159 -167 54 -106 56 -108 105 -126 98 -34 193 -150 196 -237 1
-43 -25 -80 -56 -80 -36 0 -90 -29 -86 -47 4 -21 146 -73 200 -73 36 0 68 -20
68 -42 0 -23 -34 -48 -64 -48 -17 0 -56 7 -86 15 -76 20 -83 19 -54 -12 16
-17 24 -36 22 -52 -5 -39 -59 -40 -145 -2 -46 20 -105 34 -183 45 -151 21
-183 20 -324 -9 -137 -27 -294 -97 -374 -164 -61 -52 -109 -71 -174 -71 -99 0
-147 -43 -188 -166 -39 -117 -97 -158 -126 -89 -20 49 -18 95 12 194 44 144
52 160 97 183 l41 20 -30 13 c-16 7 -44 29 -62 49 -69 79 -47 126 59 126 58 0
58 0 83 43 26 43 155 168 233 224 110 78 313 120 528 106 110 -6 155 0 155 21
0 8 -34 51 -75 97 -41 45 -84 101 -95 124 -31 65 -24 185 12 185 5 0 24 -15
42 -34z"/>
<path d="M3824 2100 c-160 -4 -184 -7 -203 -24 -28 -25 -29 -104 -2 -137 16
-20 27 -23 112 -23 l94 -1 5 -112 5 -111 -44 -6 c-24 -3 -63 -6 -87 -6 -63 0
-86 -25 -82 -92 2 -41 8 -55 29 -70 24 -18 36 -19 295 -9 633 25 771 33 797
43 18 7 30 21 35 42 9 34 0 92 -17 109 -6 6 -48 11 -94 12 -59 0 -82 3 -81 13
1 6 2 54 3 106 l1 93 81 7 c45 4 90 11 101 17 26 14 41 57 33 96 -12 65 3 63
-418 61 -210 -1 -464 -5 -563 -8z m546 -279 l0 -108 -31 -7 c-17 -3 -89 -6
-160 -6 l-129 0 0 110 0 109 93 4 c50 1 122 4 160 5 l67 2 0 -109z"/>
<path d="M6754 2100 c-160 -4 -184 -7 -203 -24 -28 -25 -29 -104 -2 -137 16
-20 27 -23 112 -23 l94 -1 5 -112 5 -111 -44 -6 c-24 -3 -63 -6 -87 -6 -61 0
-84 -25 -84 -89 0 -42 4 -53 27 -71 26 -20 33 -21 236 -14 l208 7 -3 -34 -3
-34 -229 -7 c-246 -8 -269 -13 -282 -63 -10 -41 5 -94 31 -111 23 -15 61 -15
408 -5 497 15 765 29 787 41 23 13 43 71 35 103 -4 14 -15 33 -26 43 -17 16
-40 17 -259 11 l-240 -7 0 34 c0 34 0 35 53 40 28 3 121 8 206 12 85 3 165 11
178 17 13 6 27 24 31 41 9 34 0 92 -17 109 -6 6 -48 11 -94 12 -59 0 -82 3
-81 13 1 6 2 54 3 106 l1 93 81 7 c45 4 90 11 101 17 26 14 41 57 33 96 -12
65 3 63 -418 61 -210 -1 -464 -5 -563 -8z m546 -279 l0 -108 -31 -7 c-17 -3
-89 -6 -160 -6 l-129 0 0 110 0 109 93 4 c50 1 122 4 160 5 l67 2 0 -109z"/>
<path d="M8625 2093 c-49 -2 -229 -9 -399 -16 l-309 -13 -23 -28 c-26 -30 -31
-79 -13 -120 17 -37 57 -49 132 -41 l65 7 6 -38 c3 -22 8 -78 12 -126 7 -101
14 -86 -121 -273 -96 -134 -103 -159 -56 -206 29 -29 68 -37 105 -23 9 4 60
61 112 128 53 66 99 122 103 123 3 1 26 -15 50 -37 l45 -39 -27 -40 c-53 -80
-22 -161 62 -161 34 0 45 6 85 51 25 28 71 87 102 131 l56 80 41 -39 c75 -72
181 -153 199 -153 9 0 33 14 52 30 l35 31 7 -47 c4 -26 14 -54 24 -64 43 -43
150 -28 170 25 5 14 13 88 16 165 l7 139 73 6 c40 4 80 13 89 19 23 16 35 80
23 122 -11 42 -37 54 -119 54 l-59 0 0 130 c0 147 -10 179 -60 200 -45 19
-110 7 -137 -25 -22 -25 -23 -34 -23 -198 0 -95 -3 -228 -6 -297 l-7 -125 -41
38 c-23 20 -76 68 -119 105 l-77 67 5 65 c3 36 5 97 5 136 l0 71 82 5 c73 4
84 8 105 32 30 36 32 107 3 136 -21 21 -29 22 -275 13z m-144 -337 c-2 -110
-6 -146 -19 -168 -9 -15 -20 -28 -25 -28 -5 0 -33 24 -62 53 l-54 52 -6 112
-7 112 68 4 c118 6 106 21 105 -137z"/>
<path d="M5192 2076 l-224 -11 -25 -29 c-34 -40 -28 -109 12 -144 26 -22 31
-22 141 -16 l114 7 0 -79 c0 -43 3 -108 6 -144 l5 -65 -117 -140 c-64 -77
-123 -154 -131 -171 -14 -28 -13 -34 2 -63 19 -38 73 -64 110 -55 24 6 160
145 222 226 15 21 31 37 35 38 4 0 40 -26 80 -58 105 -84 163 -121 197 -128
26 -5 36 -1 66 29 31 31 36 42 33 74 -3 35 -12 45 -145 153 l-142 115 0 136
-1 136 38 7 c20 3 65 6 99 6 108 0 142 24 143 103 0 34 -5 52 -20 67 -18 18
-32 20 -147 18 -71 0 -229 -6 -351 -12z"/>
<path d="M6141 2061 c-22 -22 -28 -98 -35 -519 -6 -315 -3 -334 59 -351 49
-13 105 5 122 39 14 29 31 333 35 613 3 198 3 199 -21 218 -33 27 -133 27
-160 0z"/>
<path d="M5834 2060 c-32 -12 -44 -61 -44 -170 l0 -97 -102 -6 c-95 -6 -105
-9 -127 -34 -20 -23 -22 -34 -18 -77 7 -77 27 -89 152 -84 l100 3 5 -165 c7
-207 17 -230 110 -230 30 0 47 6 64 23 23 23 24 32 31 232 4 115 5 290 3 389
l-5 179 -27 24 c-29 24 -98 31 -142 13z"/>
<path d="M4405 1469 c-159 -5 -402 -12 -539 -17 l-248 -8 -24 -27 c-14 -16
-24 -41 -24 -58 0 -40 24 -85 49 -92 23 -6 470 6 886 23 291 13 306 16 326 68
7 19 7 38 -1 65 -13 43 -39 58 -98 55 -20 0 -167 -5 -327 -9z"/>
<path d="M4490 1224 c-30 -2 -201 -8 -380 -14 -179 -6 -339 -16 -357 -21 -24
-8 -35 -19 -41 -42 -12 -44 -4 -92 19 -113 17 -16 42 -16 336 -5 450 16 423
17 423 -18 l0 -28 -180 -7 c-99 -3 -261 -9 -360 -12 -122 -5 -186 -11 -197
-20 -16 -11 -18 -28 -15 -130 1 -65 7 -135 13 -156 17 -65 32 -68 321 -68 139
0 331 3 427 7 203 7 211 11 211 91 0 90 24 85 -393 80 -338 -3 -367 -2 -367
13 0 18 4 19 492 37 174 6 210 10 224 24 23 23 33 91 33 235 1 98 -2 125 -15
137 -15 16 -42 17 -194 10z"/>
<path d="M7420 1224 c-30 -2 -201 -8 -380 -14 -179 -6 -339 -16 -357 -21 -24
-8 -35 -19 -41 -42 -12 -44 -4 -92 19 -113 17 -16 42 -16 336 -5 450 16 423
17 423 -18 l0 -28 -180 -7 c-99 -3 -261 -9 -360 -12 -122 -5 -186 -11 -197
-20 -16 -11 -18 -28 -15 -130 1 -65 7 -135 13 -156 17 -65 32 -68 321 -68 139
0 331 3 427 7 203 7 211 11 211 91 0 90 24 85 -393 80 -338 -3 -367 -2 -367
13 0 18 4 19 492 37 174 6 210 10 224 24 23 23 33 91 33 235 1 98 -2 125 -15
137 -15 16 -42 17 -194 10z"/>
<path d="M5610 1159 c-220 -10 -245 -14 -271 -40 -26 -26 -26 -98 0 -130 19
-24 22 -24 188 -22 92 1 252 5 356 8 l187 7 0 -179 c0 -201 5 -217 65 -229 46
-8 92 11 110 46 16 30 35 253 35 405 0 154 16 145 -258 143 -125 0 -310 -5
-412 -9z"/>
<path d="M8480 1159 c-102 -5 -199 -11 -217 -14 -59 -10 -89 -78 -62 -139 21
-45 42 -47 369 -36 168 5 315 10 328 10 22 0 22 0 22 -170 0 -102 4 -179 11
-193 27 -59 132 -62 168 -6 30 48 49 510 22 542 -12 15 -39 17 -235 15 -121 0
-304 -5 -406 -9z"/>
</g>
</svg>
